<svg id="Layer_1" data-name="Layer 1" xmlns="http://www.w3.org/2000/svg" viewBox="0 0 1228.56 756.21"><defs><style>.cls-1{fill:#9b1828;}.cls-2{fill:#dca6b4;}.cls-3{fill:#fff;}</style></defs><path class="cls-1" d="M834,606.45a103.26,103.26,0,0,1-13.6-52.28V278.3h73.77V554.17q0,17.43,14.93,26.15l-36.74,64.32A102.93,102.93,0,0,1,834,606.45Z" transform="translate(-348.34 -170.66)"/><path class="cls-1" d="M1224.67,646.73l-14.31,24.87q-21.77,37.32-57.21,58t-78.05,20.69V673.17q35.45,0,59.7-26.44a202.06,202.06,0,0,1-47-5.28A166.52,166.52,0,0,1,1044,623.73q-62.19-38.26-79.93-104.17-16.78-70.9,17.42-130.14t104.17-80.07q69.94-16.78,128.9,16.65T1294,428.76q17.41,64.69-16.78,127.18l-8.09,14h52.25v76.81h-96.71Zm-14-128.74q12.13-22.37,12.14-45.7a92.64,92.64,0,0,0-3.11-23.63q-11.19-37.92-38.09-53t-50.84-15.08a110.11,110.11,0,0,0-25.5,3.11q-38.57,11.52-54.26,38.71t-15.71,51.78a110.11,110.11,0,0,0,3.11,25.5q9.93,36.7,44.16,57.53a94,94,0,0,0,47.27,12.75h51Z" transform="translate(-348.34 -170.66)"/><path class="cls-1" d="M1321.38,569.92a30.25,30.25,0,0,0,30.46-30.47v-218a107,107,0,0,1,14.3-53.19q14-24.25,39.81-39.18l38.25,66.56q-15.56,8.71-15.55,27V539.43q0,44.48-31.39,75.88t-75.88,31.4Z" transform="translate(-348.34 -170.66)"/><path class="cls-1" d="M1484.54,234.71a39.27,39.27,0,0,1,17.11-15.85,33.12,33.12,0,0,1-2.48-13.06,33.63,33.63,0,0,1,10.42-24.88,34.23,34.23,0,0,1,25-10.26,36,36,0,0,1,17.72,4.67l10.57,6.22-12.75,22.07-10.56-6.22a11.07,11.07,0,0,0-5-1.24,9.32,9.32,0,0,0-6.85,2.81c-2.67,2.67-3.43,6.16-2.29,10.54,2.18,4.18,5.21,6.24,9.14,6.24h22.07v25.51h-39.18a12,12,0,0,0-10.89,6.22Zm14.14,367.23a106.46,106.46,0,0,1-14.14-54.09V262.39h76.81V547.85q0,18,15.55,27l-38.25,66.56Q1512.81,626.51,1498.68,601.94Z" transform="translate(-348.34 -170.66)"/><path class="cls-1" d="M739.63,673.45l-13.89,13.92a154.71,154.71,0,0,1-48.34,32.46,148.14,148.14,0,0,1-19,6.64l16.77,9.66a106.59,106.59,0,0,0,54.1,14.14h353.76V673.45Z" transform="translate(-348.34 -170.66)"/><path class="cls-2" d="M413.06,287c24.8-24.32,50.82-44,80.94-42,25.61,0,46.93,8.87,65.16,27.1,34.53,32.82,37,92.6,2.44,126.22-.52.5-1,1-1.49,1.54-27.85,30.91-80.54,69.44-92.9,109.17l-.9,2.56L460.11,527h79.83a.08.08,0,0,0,.07,0,82.57,82.57,0,0,1,14.42-19.06L716.52,345.82a36.3,36.3,0,0,0,0-52.09c-19.66-20-45.82-8.77-61,10.55a.07.07,0,0,1-.13,0C638.51,206,523,144.62,431.83,184.6h0c-16.44,4.8-39.91,23.32-64.9,46.5l-.33-.33L354,243.38c-10,9.71,4.23-4.49-5.65,5.64" transform="translate(-348.34 -170.66)"/><path class="cls-3" d="M607.22,566c27.24,28.09,75.09-3.18,60.07-41.11l0,0C639.82,473.72,569.27,526.34,607.22,566Z" transform="translate(-348.34 -170.66)"/><path class="cls-3" d="M669,622.44c-50.16,50.17-139.44,24.37-137.89-45.64a80.89,80.89,0,0,1,3.41-24.8H458.55c-13.75,88.18,60.9,169,153.24,166.69h.61c75,3.84,127.36-65.62,175.37-112.62C751,569.18,688.56,602.84,669,622.44Z" transform="translate(-348.34 -170.66)"/><path class="cls-3" d="M834,606.45a103.26,103.26,0,0,1-13.6-52.28V278.3h73.77V554.17q0,17.43,14.93,26.15l-36.74,64.32A102.93,102.93,0,0,1,834,606.45Z" transform="translate(-348.34 -170.66)"/><path class="cls-3" d="M1224.67,646.73l-14.31,24.87q-21.77,37.32-57.21,58t-78.05,20.69V673.17q35.45,0,59.7-26.44a202.06,202.06,0,0,1-47-5.28A166.52,166.52,0,0,1,1044,623.73q-62.19-38.26-79.93-104.17-16.78-70.9,17.42-130.14t104.17-80.07q69.94-16.78,128.9,16.65T1294,428.76q17.41,64.69-16.78,127.18l-8.09,14h52.25v76.81h-96.71Zm-14-128.74q12.13-22.37,12.14-45.7a92.64,92.64,0,0,0-3.11-23.63q-11.19-37.92-38.09-53t-50.84-15.08a110.11,110.11,0,0,0-25.5,3.11q-38.57,11.52-54.26,38.71t-15.71,51.78a110.11,110.11,0,0,0,3.11,25.5q9.93,36.7,44.16,57.53a94,94,0,0,0,47.27,12.75h51Z" transform="translate(-348.34 -170.66)"/><path class="cls-3" d="M1321.38,569.92a30.25,30.25,0,0,0,30.46-30.47v-218a107,107,0,0,1,14.3-53.19q14-24.25,39.81-39.18l38.25,66.56q-15.56,8.71-15.55,27V539.43q0,44.48-31.39,75.88t-75.88,31.4Z" transform="translate(-348.34 -170.66)"/><path class="cls-3" d="M1484.54,234.71a39.27,39.27,0,0,1,17.11-15.85,33.12,33.12,0,0,1-2.48-13.06,33.63,33.63,0,0,1,10.42-24.88,34.23,34.23,0,0,1,25-10.26,36,36,0,0,1,17.72,4.67l10.57,6.22-12.75,22.07-10.56-6.22a11.07,11.07,0,0,0-5-1.24,9.32,9.32,0,0,0-6.85,2.81c-2.67,2.67-3.43,6.16-2.29,10.54,2.18,4.18,5.21,6.24,9.14,6.24h22.07v25.51h-39.18a12,12,0,0,0-10.89,6.22Zm14.14,367.23a106.46,106.46,0,0,1-14.14-54.09V262.39h76.81V547.85q0,18,15.55,27l-38.25,66.56Q1512.81,626.51,1498.68,601.94Z" transform="translate(-348.34 -170.66)"/><path class="cls-3" d="M739.63,673.45l-13.89,13.92a154.71,154.71,0,0,1-48.34,32.46,148.14,148.14,0,0,1-19,6.64l16.77,9.66a106.59,106.59,0,0,0,54.1,14.14h353.76V673.45Z" transform="translate(-348.34 -170.66)"/><path class="cls-3" d="M622.19,910.88a12.13,12.13,0,0,1-4.38-2.78,11.75,11.75,0,0,1-2.67-4.28,16,16,0,0,1-.9-5.48,16.21,16.21,0,0,1,1.11-6.11,13.64,13.64,0,0,1,3.09-4.7,13.82,13.82,0,0,1,4.68-3,15.69,15.69,0,0,1,5.88-1.08,43.52,43.52,0,0,1,4.83.24q2.13.24,4.59.66v22.8h6.84v4.74h-17.1A16.76,16.76,0,0,1,622.19,910.88ZM633,907.13V888.29a10.77,10.77,0,0,0-1.14-.21q-.66-.09-1.35-.12l-1.29-.06-1,0a7.86,7.86,0,0,0-3.27.69,7.77,7.77,0,0,0-2.64,1.93,9.39,9.39,0,0,0-1.77,2.92,10.11,10.11,0,0,0-.66,3.73q0,4.88,2.28,7.43t6.66,2.56Zm-8.82-27.84a3.35,3.35,0,0,1-2.58-1.11,4,4,0,0,1,0-5.34,3.55,3.55,0,0,1,5.16,0,4,4,0,0,1,0,5.34A3.35,3.35,0,0,1,624.2,879.29Zm9.18.06a3.4,3.4,0,0,1-2.61-1.14,3.85,3.85,0,0,1-1-2.7,3.64,3.64,0,0,1,1-2.64,3.49,3.49,0,0,1,2.61-1.08,3.3,3.3,0,0,1,2.55,1.08,3.76,3.76,0,0,1,1,2.64,4,4,0,0,1-1,2.7A3.22,3.22,0,0,1,633.38,879.35Z" transform="translate(-348.34 -170.66)"/><path class="cls-3" d="M644.24,907.13h8.52V884.27h5.4v27.6H644.24Zm4.32,17.22a3.35,3.35,0,0,1-2.58-1.11,4,4,0,0,1,0-5.34,3.55,3.55,0,0,1,5.16,0,4,4,0,0,1,0,5.34A3.35,3.35,0,0,1,648.56,924.35Zm9.18.06a3.4,3.4,0,0,1-2.61-1.14,3.85,3.85,0,0,1-1-2.7,3.64,3.64,0,0,1,1-2.64,3.49,3.49,0,0,1,2.61-1.08,3.3,3.3,0,0,1,2.55,1.08,3.76,3.76,0,0,1,1,2.64,4,4,0,0,1-1,2.7A3.22,3.22,0,0,1,657.74,924.41Z" transform="translate(-348.34 -170.66)"/><path class="cls-3" d="M666.86,926.87a27.2,27.2,0,0,1-3.12-.18l.6-5.4a20.43,20.43,0,0,0,2.64.18q4.26,0,6.18-2.19t1.92-6.87V884.27h5.4v27.84a26.15,26.15,0,0,1-.63,5.94,11.52,11.52,0,0,1-2.19,4.65,10.45,10.45,0,0,1-4.17,3.06A17.05,17.05,0,0,1,666.86,926.87Z" transform="translate(-348.34 -170.66)"/><path class="cls-3" d="M696.5,907.13h6.84v4.74H691.1V872.21c-.72-.12-1.56-.23-2.49-.33l-2.73-.27v-3.18q2.28-.3,5.13-.42t5.49,0Z" transform="translate(-348.34 -170.66)"/><path class="cls-3" d="M702.14,907.13h22.08v-6.86q0-6.09-3.15-8.64t-9.45-2.56c-1.12,0-2.16,0-3.09.06s-1.76.1-2.43.18l.6-4.74c.68-.08,1.45-.14,2.34-.18s2-.06,3.24-.06a32.05,32.05,0,0,1,6.36.63,15.14,15.14,0,0,1,5.55,2.28,12.25,12.25,0,0,1,3.93,4.5,15.57,15.57,0,0,1,1.5,7.23v8.16h6.84v4.74H702.14Zm13.14,16.74a3.22,3.22,0,0,1-2.49-1.08,3.69,3.69,0,0,1-1-2.58,3.51,3.51,0,0,1,1-2.49,3.26,3.26,0,0,1,2.49-1.05,3.12,3.12,0,0,1,2.43,1.05,3.68,3.68,0,0,1,.93,2.49,3.87,3.87,0,0,1-.93,2.58A3.08,3.08,0,0,1,715.28,923.87Z" transform="translate(-348.34 -170.66)"/><path class="cls-3" d="M735.25,907.13h8.52v-22.8h5.4v22.8H756v4.74H735.25Zm7-27.84a3.35,3.35,0,0,1-2.58-1.11,4,4,0,0,1,0-5.34,3.55,3.55,0,0,1,5.16,0,4,4,0,0,1,0,5.34A3.35,3.35,0,0,1,742.21,879.29Zm9.18.06a3.4,3.4,0,0,1-2.61-1.14,3.85,3.85,0,0,1-1-2.7,3.64,3.64,0,0,1,1-2.64,3.49,3.49,0,0,1,2.61-1.08,3.3,3.3,0,0,1,2.55,1.08,3.76,3.76,0,0,1,1,2.64,4,4,0,0,1-1,2.7A3.22,3.22,0,0,1,751.39,879.35Z" transform="translate(-348.34 -170.66)"/><path class="cls-3" d="M754.81,907.13H763V868h5.4v43.92H754.81Z" transform="translate(-348.34 -170.66)"/><path class="cls-3" d="M785.65,911.87h-5.4V872.15q-1.08-.18-2.49-.33l-2.73-.27v-3.18q2.28-.3,5.13-.42t5.49,0Z" transform="translate(-348.34 -170.66)"/><path class="cls-3" d="M820.63,926.75a15.74,15.74,0,0,1-6.84-1.36,11.79,11.79,0,0,1-4.56-3.81,16.33,16.33,0,0,1-2.52-5.78,31.67,31.67,0,0,1-.78-7.23q0-1.08.12-2.46t.36-2.85q.24-1.47.57-2.91t.69-2.7l5.94-1.08a41.82,41.82,0,0,0-1.51,6.06,33.57,33.57,0,0,0-.47,5.46,25.73,25.73,0,0,0,.69,6.42,12.19,12.19,0,0,0,1.94,4.29,7.78,7.78,0,0,0,3,2.43,9.27,9.27,0,0,0,3.83.78,8.74,8.74,0,0,0,4.52-1.08,8.23,8.23,0,0,0,3-3.09A15.24,15.24,0,0,0,830.2,913a35.55,35.55,0,0,0,.51-6.3V884.33h5.4v22q0,10.5-3.69,15.48T820.63,926.75Zm1-37.44a3.23,3.23,0,0,1-2.49-1.08,3.69,3.69,0,0,1-1-2.58,3.51,3.51,0,0,1,1-2.49,3.28,3.28,0,0,1,2.49-1,3.09,3.09,0,0,1,2.43,1,3.63,3.63,0,0,1,.93,2.49,3.82,3.82,0,0,1-.93,2.58A3.05,3.05,0,0,1,821.59,889.31Z" transform="translate(-348.34 -170.66)"/><path class="cls-3" d="M852.13,911.87h-5.4V872.15q-1.08-.18-2.49-.33l-2.73-.27v-3.18q2.28-.3,5.13-.42t5.49,0Z" transform="translate(-348.34 -170.66)"/><path class="cls-3" d="M867.19,926.81q-1.74,0-3.87-.18t-3.57-.42l-.42-5.94q2,.48,4.17.81a27.59,27.59,0,0,0,4.23.33q11.28,0,11.46-9.54h-4.92a15.8,15.8,0,0,1-6.42-1.17,12.19,12.19,0,0,1-4.29-3.05,11.81,11.81,0,0,1-2.4-4.31,16.87,16.87,0,0,1-.75-5,16.33,16.33,0,0,1,1-5.69,14.25,14.25,0,0,1,2.88-4.76,13.39,13.39,0,0,1,4.62-3.26,15.29,15.29,0,0,1,6.21-1.2,44.35,44.35,0,0,1,4.86.24q2.16.24,4.62.66v22.8h6.84v4.74h-6.9a18.85,18.85,0,0,1-1,5.22,13.5,13.5,0,0,1-2.88,4.8,14.74,14.74,0,0,1-5.28,3.54A21.2,21.2,0,0,1,867.19,926.81Zm12-19.68V888.29a10.77,10.77,0,0,0-1.14-.21q-.66-.09-1.35-.12l-1.29-.06-1,0a8.31,8.31,0,0,0-5.52,2.29,9.37,9.37,0,0,0-2,2.88,9.68,9.68,0,0,0-.81,4.1q0,4.93,2.31,7.46a8.51,8.51,0,0,0,6.63,2.53Z" transform="translate(-348.34 -170.66)"/><path class="cls-3" d="M890.23,907.13h8.22V868h5.4v43.92H890.23Z" transform="translate(-348.34 -170.66)"/><path class="cls-3" d="M922,863.39l-1-.09-1,0a2.54,2.54,0,0,0-1.65.51,1.71,1.71,0,0,0-.63,1.41,2.24,2.24,0,0,0,.72,1.62,3.41,3.41,0,0,0,2.46.72h2.52V871H911.65v-3.42l1.92,0a6.8,6.8,0,0,1,2.1.33,3.2,3.2,0,0,1-1.11-1.23,4.28,4.28,0,0,1-.33-1.83,4,4,0,0,1,1.62-3.33,6.66,6.66,0,0,1,4.14-1.23q.6,0,1.29.06t1.47.18Zm1.2,37.8-5.4,1.26V880.07q-1.08-.18-2.49-.33l-2.73-.27v-3.18q2.28-.3,5.13-.42t5.49,0Zm.18,11.28a34.78,34.78,0,0,1-4.86-.33,41.58,41.58,0,0,1-4.26-.81l.72-6a21.37,21.37,0,0,0,4.32,1.29,23.83,23.83,0,0,0,4.5.45,17.14,17.14,0,0,0,4.8-.57,8.18,8.18,0,0,0,3.09-1.59,5.5,5.5,0,0,0,1.65-2.52,10.78,10.78,0,0,0,.48-3.3V868h5.4v30.54a18.46,18.46,0,0,1-.81,5.61,10.74,10.74,0,0,1-2.67,4.41,12.64,12.64,0,0,1-4.89,2.91A23,23,0,0,1,923.41,912.47Z" transform="translate(-348.34 -170.66)"/><path class="cls-3" d="M954.91,911.87h-5.4V872.15q-1.08-.18-2.49-.33l-2.73-.27v-3.18q2.28-.3,5.13-.42t5.49,0Z" transform="translate(-348.34 -170.66)"/><path class="cls-3" d="M982.84,910.88a12.13,12.13,0,0,1-4.38-2.78,11.75,11.75,0,0,1-2.67-4.28,16,16,0,0,1-.9-5.48,16.21,16.21,0,0,1,1.11-6.11,13.64,13.64,0,0,1,3.09-4.7,13.82,13.82,0,0,1,4.68-3,15.69,15.69,0,0,1,5.88-1.08,43.52,43.52,0,0,1,4.83.24q2.13.24,4.59.66v22.8h6.84v4.74h-17.1A16.76,16.76,0,0,1,982.84,910.88Zm10.83-3.75V888.29a10.77,10.77,0,0,0-1.14-.21q-.66-.09-1.35-.12l-1.29-.06-1,0a7.86,7.86,0,0,0-3.27.69,7.77,7.77,0,0,0-2.64,1.93,9.39,9.39,0,0,0-1.77,2.92,10.11,10.11,0,0,0-.66,3.73q0,4.88,2.28,7.43t6.66,2.56Zm-8.82-27.84a3.35,3.35,0,0,1-2.58-1.11,4,4,0,0,1,0-5.34,3.55,3.55,0,0,1,5.16,0,4,4,0,0,1,0,5.34A3.35,3.35,0,0,1,984.85,879.29Zm9.18.06a3.4,3.4,0,0,1-2.61-1.14,3.85,3.85,0,0,1-1-2.7,3.64,3.64,0,0,1,1-2.64,3.49,3.49,0,0,1,2.61-1.08,3.3,3.3,0,0,1,2.55,1.08,3.76,3.76,0,0,1,1,2.64,4,4,0,0,1-1,2.7A3.22,3.22,0,0,1,994,879.35Z" transform="translate(-348.34 -170.66)"/><path class="cls-3" d="M1004.71,907.13h8.22V868h5.4v39.18h6.84v4.74h-20.46Z" transform="translate(-348.34 -170.66)"/><path class="cls-3" d="M1038.19,910.28a11,11,0,0,1-4.26-4.11,8.28,8.28,0,0,1-3,4.11,9.58,9.58,0,0,1-5.85,1.59H1024v-4.74h1.92a7,7,0,0,0,2.22-.36,4.48,4.48,0,0,0,1.92-1.29,6.82,6.82,0,0,0,1.35-2.52,13.26,13.26,0,0,0,.51-4,21.38,21.38,0,0,1,1-6.87,13.13,13.13,0,0,1,2.79-4.83,11.44,11.44,0,0,1,4.29-2.88,15.32,15.32,0,0,1,5.55-1,13.33,13.33,0,0,1,4.77.81,9,9,0,0,1,3.63,2.52,11.69,11.69,0,0,1,2.31,4.38,22.17,22.17,0,0,1,.81,6.39v9.6h6.24v4.74h-17.16A16.28,16.28,0,0,1,1038.19,910.28Zm13.44-3.15V896.41a11.85,11.85,0,0,0-.45-3.3,8.41,8.41,0,0,0-1.32-2.74,6.07,6.07,0,0,0-2.16-1.84,6.43,6.43,0,0,0-3-.66,6.87,6.87,0,0,0-3.27.72,6.15,6.15,0,0,0-2.22,2,8.47,8.47,0,0,0-1.26,2.95,16.2,16.2,0,0,0-.39,3.67q0,5.17,2.31,7.55t7.23,2.38Z" transform="translate(-348.34 -170.66)"/><path class="cls-3" d="M1062.07,907.13h22.08v-6.86q0-6.09-3.15-8.64t-9.45-2.56q-1.68,0-3.09.06t-2.43.18l.6-4.74q1-.12,2.34-.18t3.24-.06a32.05,32.05,0,0,1,6.36.63,15.06,15.06,0,0,1,5.55,2.27,12.21,12.21,0,0,1,3.93,4.49,15.4,15.4,0,0,1,1.5,7.22v12.93h-27.48Zm13.74,16.8a3.23,3.23,0,0,1-2.49-1.08,3.69,3.69,0,0,1-1-2.58,3.51,3.51,0,0,1,1-2.49,3.28,3.28,0,0,1,2.49-1,3.09,3.09,0,0,1,2.43,1,3.63,3.63,0,0,1,.93,2.49,3.82,3.82,0,0,1-.93,2.58A3.05,3.05,0,0,1,1075.81,923.93Z" transform="translate(-348.34 -170.66)"/><path class="cls-3" d="M1116.28,910.88a12.13,12.13,0,0,1-4.38-2.78,11.62,11.62,0,0,1-2.67-4.28,16,16,0,0,1-.9-5.48,16.21,16.21,0,0,1,1.11-6.11,13.5,13.5,0,0,1,3.09-4.7,13.82,13.82,0,0,1,4.68-3,15.65,15.65,0,0,1,5.88-1.08,43.52,43.52,0,0,1,4.83.24c1.41.16,2.95.38,4.59.66v22.8h6.84v4.74h-17.1A16.72,16.72,0,0,1,1116.28,910.88Zm10.83-3.75V888.29a10.77,10.77,0,0,0-1.14-.21q-.66-.09-1.35-.12l-1.29-.06-1,0a7.86,7.86,0,0,0-3.27.69,7.77,7.77,0,0,0-2.64,1.93,9.2,9.2,0,0,0-1.77,2.92,10.11,10.11,0,0,0-.66,3.73q0,4.88,2.28,7.43c1.52,1.71,3.73,2.56,6.66,2.56Zm-8.82-27.84a3.35,3.35,0,0,1-2.58-1.11,4,4,0,0,1,0-5.34,3.55,3.55,0,0,1,5.16,0,4,4,0,0,1,0,5.34A3.37,3.37,0,0,1,1118.29,879.29Zm9.18.06a3.37,3.37,0,0,1-2.61-1.14,3.85,3.85,0,0,1-1-2.7,3.64,3.64,0,0,1,1-2.64,3.46,3.46,0,0,1,2.61-1.08,3.32,3.32,0,0,1,2.55,1.08,3.76,3.76,0,0,1,1,2.64,4,4,0,0,1-1,2.7A3.24,3.24,0,0,1,1127.47,879.35Z" transform="translate(-348.34 -170.66)"/><path class="cls-3" d="M1156.75,912.47a8.62,8.62,0,0,1-4.59-1.35,7.82,7.82,0,0,1-3.21-4,8.4,8.4,0,0,1-3.6,3.69,9.88,9.88,0,0,1-4.44,1.11h-2.76v-4.74h2.16a6.28,6.28,0,0,0,5.16-2.4q1.92-2.4,1.92-7V884.33h5.4V900c0,2.76.48,4.71,1.47,5.85a5,5,0,0,0,4,1.71,4.84,4.84,0,0,0,4.44-2.55c1-1.7,1.5-4.61,1.5-8.73V884.33h5.4v18.12a4.29,4.29,0,0,0,1.44,3.45,5.51,5.51,0,0,0,3.72,1.23h5.58V896.54c0-2.88-.12-5.49-.33-7.81s-.5-4.47-.81-6.44l5.52-1c.32,1.84.57,4,.75,6.49s.27,5.06.27,7.7v11.67h6.84v4.74h-18.24a10.39,10.39,0,0,1-5.4-1.2A7.14,7.14,0,0,1,1166,907a9,9,0,0,1-3.27,4A10.61,10.61,0,0,1,1156.75,912.47Z" transform="translate(-348.34 -170.66)"/><path class="cls-3" d="M1210,912.47a8.58,8.58,0,0,1-4.58-1.35,7.77,7.77,0,0,1-3.21-4,8.46,8.46,0,0,1-3.6,3.69,9.92,9.92,0,0,1-4.44,1.11h-2.76v-4.74h2.16a6.28,6.28,0,0,0,5.16-2.4c1.27-1.6,1.92-3.94,1.92-7V884.33H1206V900q0,4.14,1.48,5.85a5,5,0,0,0,4,1.71,4.86,4.86,0,0,0,4.45-2.55c1-1.7,1.5-4.61,1.5-8.73V884.33h5.4v18.12a4.29,4.29,0,0,0,1.44,3.45,5.5,5.5,0,0,0,3.71,1.23h5.58V896.54c0-2.88-.11-5.49-.33-7.81s-.49-4.47-.8-6.44l5.51-1a60.74,60.74,0,0,1,.75,6.48q.28,3.72.28,7.68v16.44h-11.41a10.35,10.35,0,0,1-5.39-1.2,7.1,7.1,0,0,1-2.94-3.66,9,9,0,0,1-3.27,4A10.62,10.62,0,0,1,1210,912.47Z" transform="translate(-348.34 -170.66)"/><path class="cls-3" d="M1253.4,926.81q-1.74,0-3.87-.18t-3.57-.42l-.42-5.94q2,.48,4.17.81a27.59,27.59,0,0,0,4.23.33q11.28,0,11.46-9.54h-4.92a15.8,15.8,0,0,1-6.42-1.17,12.19,12.19,0,0,1-4.29-3.05,11.64,11.64,0,0,1-2.39-4.31,16.56,16.56,0,0,1-.75-5,16.32,16.32,0,0,1,1-5.69,14.25,14.25,0,0,1,2.88-4.76,13.39,13.39,0,0,1,4.62-3.26,15.29,15.29,0,0,1,6.21-1.2,44.22,44.22,0,0,1,4.86.24c1.45.16,3,.38,4.62.66v22.8h6.84v4.74h-6.9a18.85,18.85,0,0,1-1,5.22,13.36,13.36,0,0,1-2.88,4.8,14.74,14.74,0,0,1-5.28,3.54A21.2,21.2,0,0,1,1253.4,926.81Zm12-19.68V888.29a10.77,10.77,0,0,0-1.14-.21q-.66-.09-1.35-.12l-1.28-.06-1,0a8.31,8.31,0,0,0-5.52,2.29,9.37,9.37,0,0,0-2,2.88,9.68,9.68,0,0,0-.81,4.1q0,4.93,2.31,7.46a8.51,8.51,0,0,0,6.63,2.53Zm.3-37-1-.09-1,0a2.54,2.54,0,0,0-1.65.51,1.71,1.71,0,0,0-.63,1.41,2.24,2.24,0,0,0,.72,1.62,3.42,3.42,0,0,0,2.47.72h2.51v3.42h-11.82v-3.42l1.92,0a6.8,6.8,0,0,1,2.1.33,3.2,3.2,0,0,1-1.11-1.23,4.28,4.28,0,0,1-.33-1.83,4,4,0,0,1,1.62-3.33,6.66,6.66,0,0,1,4.14-1.23q.6,0,1.29.06t1.47.18Z" transform="translate(-348.34 -170.66)"/><path class="cls-3" d="M1276.44,907.13h1.92a7,7,0,0,0,2.22-.36,4.48,4.48,0,0,0,1.92-1.29,6.82,6.82,0,0,0,1.35-2.52,13.26,13.26,0,0,0,.51-4,21.38,21.38,0,0,1,1-6.87,13.13,13.13,0,0,1,2.79-4.83,11.44,11.44,0,0,1,4.29-2.88,15.32,15.32,0,0,1,5.55-1,13.33,13.33,0,0,1,4.77.81,9,9,0,0,1,3.63,2.51,11.72,11.72,0,0,1,2.31,4.37,22.1,22.1,0,0,1,.81,6.38v14.37h-10.92a16.28,16.28,0,0,1-7.92-1.59,11,11,0,0,1-4.26-4.11,8.28,8.28,0,0,1-3,4.11,9.58,9.58,0,0,1-5.85,1.59h-1.14Zm27.66,0V896.41a11.85,11.85,0,0,0-.45-3.3,8.41,8.41,0,0,0-1.32-2.74,6.07,6.07,0,0,0-2.16-1.84,6.43,6.43,0,0,0-3-.66,6.87,6.87,0,0,0-3.27.72,6.15,6.15,0,0,0-2.22,2,8.47,8.47,0,0,0-1.26,2.95,16.2,16.2,0,0,0-.39,3.67q0,5.17,2.31,7.55t7.23,2.38Z" transform="translate(-348.34 -170.66)"/></svg>